<svg width="133" height="21" viewBox="0 0 133 21" fill="none" xmlns="http://www.w3.org/2000/svg">
<path d="M10.4475 20.8941C9.01689 20.8941 7.6616 20.6212 6.3816 20.0753C5.12042 19.5294 4.00983 18.7859 3.04983 17.8447C2.10866 16.8847 1.36513 15.7741 0.819246 14.5129C0.273364 13.2329 0.000422829 11.8776 0.000422829 10.4471C0.000422829 8.99764 0.273364 7.64235 0.819246 6.38117C1.36513 5.11999 2.10866 4.01882 3.04983 3.07764C4.00983 2.11764 5.12042 1.3647 6.3816 0.818817C7.6616 0.272935 9.01689 -5.99581e-06 10.4475 -5.99581e-06C12.1416 -5.99581e-06 13.704 0.367053 15.1345 1.10117C16.5651 1.83529 17.7604 2.82352 18.7204 4.06588L15.5298 6.71999C14.9087 6.0047 14.1651 5.45882 13.2992 5.08235C12.4522 4.68705 11.5204 4.48941 10.504 4.48941C9.69454 4.48941 8.9416 4.63999 8.24513 4.94117C7.54866 5.22352 6.93689 5.63764 6.40983 6.18352C5.88278 6.71058 5.46866 7.34117 5.16748 8.07529C4.86631 8.80941 4.71572 9.59999 4.71572 10.4471C4.71572 11.3318 4.87572 12.1412 5.19572 12.8753C5.53454 13.6094 5.97689 14.24 6.52278 14.7671C7.08748 15.2753 7.71807 15.6706 8.41454 15.9529C9.12983 16.2165 9.87336 16.3482 10.6451 16.3482C11.3416 16.3482 11.991 16.2541 12.5934 16.0659C13.2145 15.8588 13.7604 15.5859 14.231 15.2471C14.7016 14.8894 15.0875 14.4659 15.3887 13.9765C15.6898 13.4871 15.8875 12.9506 15.9816 12.3671H10.4475V8.52705H20.6969C20.7722 8.84705 20.8192 9.16705 20.8381 9.48705C20.8757 9.80705 20.8945 10.1271 20.8945 10.4471C20.8945 11.8776 20.6216 13.2329 20.0757 14.5129C19.5298 15.7741 18.7769 16.8847 17.8169 17.8447C16.8757 18.7859 15.7745 19.5294 14.5134 20.0753C13.2522 20.6212 11.8969 20.8941 10.4475 20.8941ZM23.0003 20.3294V0.564699H27.7156V20.3294H23.0003ZM37.2924 20.3294L29.4148 0.564699H34.2712L39.7206 14.0894L45.1418 0.564699H49.9983L42.1206 20.3294H37.2924ZM51.7043 20.3294V0.564699H56.4196V20.3294H51.7043ZM71.3526 13.7506H64.802V20.3294H60.0867V0.564699H71.3526C72.3126 0.564699 73.1784 0.752935 73.9502 1.12941C74.722 1.48705 75.3808 1.97646 75.9267 2.59764C76.4726 3.19999 76.8961 3.89646 77.1973 4.68705C77.4984 5.47764 77.649 6.29646 77.649 7.14352C77.649 7.99058 77.4984 8.81882 77.1973 9.62823C76.8961 10.4188 76.4726 11.1247 75.9267 11.7459C75.3808 12.3482 74.722 12.8376 73.9502 13.2141C73.1784 13.5718 72.3126 13.7506 71.3526 13.7506ZM70.5055 9.6847C70.9761 9.6847 71.3714 9.59999 71.6914 9.43058C72.0114 9.26117 72.2749 9.05411 72.482 8.80941C72.689 8.54588 72.8302 8.26352 72.9055 7.96235C72.9996 7.66117 73.0467 7.38823 73.0467 7.14352C73.0467 6.89882 72.9996 6.63529 72.9055 6.35294C72.8302 6.05176 72.689 5.76941 72.482 5.50588C72.2749 5.24235 72.0114 5.02588 71.6914 4.85646C71.3714 4.68705 70.9761 4.60235 70.5055 4.60235H64.802V9.6847H70.5055ZM79.8293 20.3294V0.564699H84.5446V16.0941H94.5117V20.3294H79.8293ZM111.373 20.3294L110.075 17.1388H101.802L100.503 20.3294H95.6464L103.524 0.564699H108.352L116.23 20.3294H111.373ZM103.326 13.2706H108.55L105.924 6.8047L103.326 13.2706ZM120.097 20.3294V12.9882L112.163 0.564699H117.076L122.441 8.92235L127.805 0.564699H132.718L124.784 12.9882V20.3294H120.097Z" fill="white"/>
</svg>
