<svg width="32" height="32" viewBox="0 0 32 32" fill="none" xmlns="http://www.w3.org/2000/svg">
<path d="M16 8C22.4727 8.00001 28.2435 11.1234 32 16C28.2435 20.8766 22.4727 24 16 24C9.7297 24 4.11823 21.0688 0.358398 16.4521L0 16C3.75652 11.1234 9.52731 8 16 8ZM16 12C13.7909 12 12 13.7909 12 16C12 18.2091 13.7909 20 16 20C18.2091 20 20 18.2091 20 16C20 13.7909 18.2091 12 16 12Z" fill="white"/>
<path d="M16 8C22.4727 8.00001 28.2435 11.1234 32 16C28.2435 20.8766 22.4727 24 16 24C9.7297 24 4.11823 21.0688 0.358398 16.4521L0 16C3.75652 11.1234 9.52731 8 16 8ZM16 12C13.7909 12 12 13.7909 12 16C12 18.2091 13.7909 20 16 20C18.2091 20 20 18.2091 20 16C20 13.7909 18.2091 12 16 12Z" fill="black" fill-opacity="0.25"/>
</svg>
