<svg width="28" height="24" viewBox="0 0 28 24" fill="none" xmlns="http://www.w3.org/2000/svg">
<path fill-rule="evenodd" clip-rule="evenodd" d="M1.92296 9.97962C9.43177 6.70813 14.4388 4.55137 16.9441 3.50932C24.0972 0.534079 25.5835 0.0172481 26.5523 0.000181963C26.7654 -0.00357153 27.2418 0.0492351 27.5504 0.299648C27.811 0.511092 27.8827 0.796723 27.917 0.997195C27.9513 1.19767 27.994 1.65435 27.9601 2.01119C27.5725 6.08407 25.8952 15.9679 25.0419 20.5296C24.6808 22.4598 23.9699 23.107 23.2816 23.1703C21.7858 23.308 20.65 22.1818 19.2013 21.2321C16.9343 19.7461 15.6536 18.821 13.4531 17.3709C10.91 15.6951 12.5586 14.774 14.0079 13.2687C14.3872 12.8747 20.9776 6.88018 21.1052 6.33638C21.1211 6.26837 21.1359 6.01486 20.9853 5.88099C20.8347 5.74713 20.6124 5.7929 20.452 5.82931C20.2246 5.88092 16.6031 8.27464 9.58739 13.0105C8.55943 13.7164 7.62833 14.0603 6.79411 14.0423C5.87443 14.0224 4.10535 13.5223 2.79023 13.0948C1.17717 12.5704 -0.104859 12.2932 0.00677661 11.4027C0.0649234 10.9389 0.703653 10.4645 1.92296 9.97962Z" fill="#1C1C1C"/>
</svg>
