<svg width="30" height="21" viewBox="0 0 30 21" fill="none" xmlns="http://www.w3.org/2000/svg">
<path d="M14.707 0C14.7649 6.27708e-06 23.9214 0.00193111 26.2158 0.629883C27.4755 0.969195 28.4685 1.96291 28.8076 3.22266C29.4359 5.51873 29.4132 10.2976 29.4131 10.3213C29.4131 10.3213 29.4133 15.0948 28.8076 17.3965C28.4684 18.656 27.4753 19.649 26.2158 19.9883C23.9214 20.5921 14.7649 20.5947 14.707 20.5947C14.707 20.5947 5.52449 20.5947 3.19824 19.9648C1.93839 19.6257 0.944694 18.6319 0.605469 17.3721C-0.000246055 15.0946 0 10.2969 0 10.2969C1.16784e-05 10.2552 0.0024976 5.51436 0.605469 3.22266C0.944669 1.96277 1.96258 0.944669 3.19824 0.605469C5.50017 -0.000213373 14.707 0 14.707 0ZM11.7754 14.7061L19.4307 10.2969L11.7754 5.8877V14.7061Z" fill="#1C1C1C"/>
</svg>
