<svg width="128" height="20" viewBox="0 0 128 20" fill="none" xmlns="http://www.w3.org/2000/svg">
<path d="M114.957 19.4595V12.4325L107.362 0.540588H112.065L117.2 8.54059L122.335 0.540588H127.038L119.443 12.4325V19.4595H114.957Z" fill="white"/>
<path d="M106.607 19.4595L105.364 16.4055H97.4446L96.2014 19.4595H91.5527L99.0933 0.540588H103.715L111.255 19.4595H106.607ZM98.9041 12.7028H103.904L101.391 6.51356L98.9041 12.7028Z" fill="white"/>
<path d="M76.4131 19.4595V0.540588H80.9266V15.4055H90.4671V19.4595H76.4131Z" fill="white"/>
<path d="M49.4922 19.4595V0.540588H54.0057V19.4595H49.4922Z" fill="white"/>
<path d="M35.6968 19.4595L28.1562 0.540588H32.8049L38.0211 13.4865L43.2103 0.540588H47.859L40.3184 19.4595H35.6968Z" fill="white"/>
<path d="M22.0156 19.4595V0.540588H26.5291V19.4595H22.0156Z" fill="white"/>
<path d="M10 20C8.63063 20 7.33333 19.7387 6.10811 19.2162C4.9009 18.6937 3.83784 17.982 2.91892 17.0811C2.01802 16.1622 1.30631 15.0991 0.783784 13.8919C0.261261 12.6667 0 11.3694 0 10C0 8.61261 0.261261 7.31531 0.783784 6.10811C1.30631 4.9009 2.01802 3.84685 2.91892 2.94595C3.83784 2.02703 4.9009 1.30631 6.10811 0.783783C7.33333 0.261261 8.63063 0 10 0C11.6216 0 13.1171 0.351351 14.4865 1.05405C15.8559 1.75676 17 2.7027 17.9189 3.89189L14.8649 6.43243C14.2703 5.74775 13.5586 5.22522 12.7297 4.86486C11.9189 4.48649 11.027 4.2973 10.0541 4.2973C9.27928 4.2973 8.55856 4.44144 7.89189 4.72973C7.22522 5 6.63964 5.3964 6.13513 5.91892C5.63063 6.42342 5.23423 7.02703 4.94595 7.72973C4.65766 8.43243 4.51351 9.18919 4.51351 10C4.51351 10.8468 4.66667 11.6216 4.97297 12.3243C5.2973 13.027 5.72072 13.6306 6.24324 14.1351C6.78378 14.6216 7.38739 15 8.05405 15.2703C8.73874 15.5225 9.45045 15.6486 10.1892 15.6486C10.8559 15.6486 11.4775 15.5586 12.0541 15.3784C12.6486 15.1802 13.1712 14.9189 13.6216 14.5946C14.0721 14.2523 14.4414 13.8468 14.7297 13.3784C15.018 12.9099 15.2072 12.3964 15.2973 11.8378H10V8.16216H19.8108C19.8829 8.46847 19.9279 8.77477 19.9459 9.08108C19.982 9.38739 20 9.69369 20 10C20 11.3694 19.7387 12.6667 19.2162 13.8919C18.6937 15.0991 17.973 16.1622 17.0541 17.0811C16.1532 17.982 15.0991 18.6937 13.8919 19.2162C12.6847 19.7387 11.3874 20 10 20Z" fill="white"/>
<path d="M73.1807 6.69678V13.3931L56.9961 19.5327V0.558105L73.1807 6.69678ZM61.4609 12.8354L66.1904 11.4399L68.7158 10.7427V9.34717L66.1904 8.6499L61.4609 7.25439V12.8354Z" fill="white"/>
</svg>
