<svg width="22" height="27" viewBox="0 0 22 27" fill="none" xmlns="http://www.w3.org/2000/svg">
<path d="M9.4 1.41422L11.8 3.80875L11.729 3.8799M11.8 20.6143L9.4 22.9071L9.43558 22.9443M11.729 3.8799L9.4 6.21421M11.729 3.8799C11.3587 3.83652 10.982 3.81421 10.6 3.81421C5.29806 3.81421 1 8.11228 1 13.4142C1 16.4459 2.40529 19.1493 4.6 20.9086M16.6 5.91977C18.7947 7.67911 20.2 10.3825 20.2 13.4142C20.2 18.7161 15.9019 23.0142 10.6 23.0142C10.2059 23.0142 9.81727 22.9904 9.43558 22.9443M11.8 25.4143L9.43558 22.9443" stroke="black" stroke-width="2" stroke-linecap="square" stroke-linejoin="round"/>
</svg>
