<?xml version="1.0" encoding="utf-8"?><svg viewBox="0 0 502.66 502.66" xmlns="http://www.w3.org/2000/svg" xmlns:xlink="http://www.w3.org/1999/xlink"><style>:root>svg{display:none}:root>svg:target{display:block}</style><svg viewBox="0 0 48 48" id="Group_58" xmlns="http://www.w3.org/2000/svg"><path d="M0 0h48v48H0V0Z"/><path d="M23 7c5.523 0 10 4.477 10 10 0 4.838-3.436 8.872-8 9.799V31h-6V21h4a4 4 0 0 0 0-8h-4V7h4ZM19 35h6v6h-6z"/></svg><svg viewBox="0 0 30 30" id="cart" xmlns="http://www.w3.org/2000/svg"><path d="M26.714 29.143H2.429L0 10.32h29.143l-2.43 18.822ZM6.728 13.357l1.109 12.75h2.436l-1.108-12.75H6.728Zm6.63 0v12.75h2.428v-12.75h-2.429Zm6.622 0-1.109 12.75h2.437l1.108-12.75H19.98ZM21.179 0l.157 1.031 1.049 6.862h-2.457l-.835-5.464h-9.045l-.835 5.464H6.756L7.805 1.03 7.962 0h13.217Z"/></svg><svg viewBox="0 0 48 48" id="eye" xmlns="http://www.w3.org/2000/svg"><path d="M0 0h48v48H0V0Z"/><path d="M40 24c-3.757 4.877-9.527 8-16 8-6.27 0-11.882-2.931-15.642-7.548L8 24c3.757-4.877 9.527-8 16-8 6.473 0 12.243 3.123 16 8Z"/><circle cx="24" cy="24" r="4"/></svg><svg viewBox="0 0 48 48" id="graph" xmlns="http://www.w3.org/2000/svg"><path d="M0 0h48v48H0V0Z"/><path d="M8 8h32v32H8z"/><path d="m13 18 9 9 5.5-5.5 9 9"/></svg><svg viewBox="0 0 502.664 502.664" xml:space="preserve" id="icon" xmlns="http://www.w3.org/2000/svg"><path d="M153.821 358.226 0 274.337v-46.463l153.821-83.414v54.574L46.636 250.523l107.185 53.431v54.272zm26.273 29.358L282.103 115.08h32.227L212.084 387.584h-31.99zm168.749-29.358v-54.272l107.164-52.999-107.164-52.59v-53.927l153.821 83.522v46.183l-153.821 84.083z"/></svg><svg viewBox="0 0 128 20" id="logo" xmlns="http://www.w3.org/2000/svg"><path d="M114.957 19.46v-7.028L107.362.541h4.703l5.135 8 5.135-8h4.703l-7.595 11.891v7.027h-4.486Zm-8.35 0-1.243-3.055h-7.92l-1.243 3.054h-4.648L99.093.541h4.622l7.54 18.918h-4.648Zm-7.703-6.757h5l-2.513-6.19-2.487 6.19ZM76.413 19.46V.54h4.514v14.866h9.54v4.053H76.413Zm-26.921 0V.54h4.514v18.92h-4.514Zm-13.795 0L28.157.54h4.648l5.216 12.947L43.211.54h4.648l-7.54 18.918h-4.622Zm-13.681 0V.54h4.513v18.92h-4.513ZM10 20a9.818 9.818 0 0 1-3.892-.784 10.43 10.43 0 0 1-3.19-2.135 10.43 10.43 0 0 1-2.134-3.19A9.817 9.817 0 0 1 0 10c0-1.387.261-2.685.784-3.892a10.096 10.096 0 0 1 2.135-3.162A10.194 10.194 0 0 1 6.109.784 9.817 9.817 0 0 1 10 0c1.622 0 3.117.351 4.486 1.054a10.111 10.111 0 0 1 3.433 2.838l-3.054 2.54a5.92 5.92 0 0 0-2.135-1.567c-.811-.379-1.703-.568-2.676-.568-.775 0-1.495.144-2.162.433a5.06 5.06 0 0 0-1.757 1.189 5.456 5.456 0 0 0-1.189 1.81A5.923 5.923 0 0 0 4.514 10c0 .847.153 1.622.459 2.324a5.958 5.958 0 0 0 1.27 1.811c.54.487 1.144.865 1.811 1.135a6.129 6.129 0 0 0 2.135.379 6.22 6.22 0 0 0 1.865-.27 5.804 5.804 0 0 0 1.568-.784 4.45 4.45 0 0 0 1.108-1.217 4.18 4.18 0 0 0 .567-1.54H10V8.162h9.81c.073.306.118.613.136.92.036.305.054.612.054.918 0 1.37-.261 2.667-.784 3.892a10.193 10.193 0 0 1-2.162 3.19c-.9.9-1.955 1.612-3.162 2.134C12.685 19.74 11.387 20 10 20ZM73.18 6.697v6.696l-16.184 6.14V.558l16.185 6.139Zm-11.72 6.138 4.73-1.395 2.526-.697V9.347L66.19 8.65l-4.73-1.396v5.581Z"/></svg><svg viewBox="0 0 48 48" id="pic" xmlns="http://www.w3.org/2000/svg"><path d="M0 0h48v48H0V0Z"/><path d="m38 38-15-3.75V14.018L38 10v28ZM19 33.25 10 31V17.5l9-2.411V33.25Z"/></svg><svg viewBox="0 0 25 34" id="profile" xmlns="http://www.w3.org/2000/svg"><path d="M3.036 18.214 0 34h24.286L21.25 18.214H3.036Z"/><circle cx="12.143" cy="7.893" r="7.893"/></svg><svg viewBox="0 0 48 48" id="question" xmlns="http://www.w3.org/2000/svg"><path d="M0 0h48v48H0V0Z"/><path d="M23 7c5.523 0 10 4.477 10 10 0 4.838-3.436 8.872-8 9.799V31h-6V21h4a4 4 0 0 0 0-8h-4V7h4ZM19 35h6v6h-6z"/></svg><svg viewBox="0 0 48 48" id="squares" xmlns="http://www.w3.org/2000/svg"><path d="M0 0h48v48H0V0Z"/><path d="M10 10h12v12H10zM26 10h12v12H26zM26 26h12v12H26zm-16 0h12v12H10z"/></svg><svg viewBox="0 0 48 48" id="time" xmlns="http://www.w3.org/2000/svg"><path d="M0 0h48v48H0V0Z"/><circle cx="24" cy="24" r="14"/><path d="m26 24.154 3.737 2.159-2 3.463L22 26.464l.268-.464H22V14h4v10.154Z"/></svg></svg>