<?xml version="1.0" encoding="utf-8"?><svg viewBox="0 0 502.66 502.66" xmlns="http://www.w3.org/2000/svg" xmlns:xlink="http://www.w3.org/1999/xlink"><style>:root>svg{display:none}:root>svg:target{display:block}</style><svg viewBox="0 0 48 48" id="Group_58" xmlns="http://www.w3.org/2000/svg"><path d="M0 0h48v48H0V0Z"/><path d="M23 7c5.523 0 10 4.477 10 10 0 4.838-3.436 8.872-8 9.799V31h-6V21h4a4 4 0 0 0 0-8h-4V7h4ZM19 35h6v6h-6z"/></svg><svg viewBox="0 0 19 11" id="arrow" xmlns="http://www.w3.org/2000/svg"><path fill-rule="evenodd" clip-rule="evenodd" d="M9.153 0 0 9.15l1.68 1.682 7.473-7.474 7.472 7.474 1.682-1.681L9.153 0Z"/></svg><svg viewBox="0 0 30 30" id="cart" xmlns="http://www.w3.org/2000/svg"><path d="M26.714 29.143H2.429L0 10.32h29.143l-2.43 18.822ZM6.728 13.357l1.109 12.75h2.436l-1.108-12.75H6.728Zm6.63 0v12.75h2.428v-12.75h-2.429Zm6.622 0-1.109 12.75h2.437l1.108-12.75H19.98ZM21.179 0l.157 1.031 1.049 6.862h-2.457l-.835-5.464h-9.045l-.835 5.464H6.756L7.805 1.03 7.962 0h13.217Z"/></svg><svg viewBox="0 0 20 15" id="check" xmlns="http://www.w3.org/2000/svg"><path d="m1.09 5.56 6.375 6.75 11.25-11.25"/></svg><svg viewBox="0 0 14 14" id="close" xmlns="http://www.w3.org/2000/svg"><path d="m.531.53 12 12m0-12-12 12"/></svg><svg viewBox="0 0 24 24" id="delete" xmlns="http://www.w3.org/2000/svg"><path d="M20 24H4L2 6h20l-2 18ZM7 21h2L8 9H6l1 12Zm4-12v12h2V9h-2Zm4 12h2l1-12h-2l-1 12Zm9-17H0V2h11V0h2v2h11v2Z"/></svg><svg viewBox="0 0 48 48" id="eye" xmlns="http://www.w3.org/2000/svg"><path d="M0 0h48v48H0V0Z"/><path d="M40 24c-3.757 4.877-9.527 8-16 8-6.27 0-11.882-2.931-15.642-7.548L8 24c3.757-4.877 9.527-8 16-8 6.473 0 12.243 3.123 16 8Z"/><circle cx="24" cy="24" r="4"/></svg><svg viewBox="0 0 48 48" id="graph" xmlns="http://www.w3.org/2000/svg"><path d="M0 0h48v48H0V0Z"/><path d="M8 8h32v32H8z"/><path d="m13 18 9 9 5.5-5.5 9 9"/></svg><svg viewBox="0 0 502.664 502.664" xml:space="preserve" id="icon" xmlns="http://www.w3.org/2000/svg"><path d="M153.821 358.226 0 274.337v-46.463l153.821-83.414v54.574L46.636 250.523l107.185 53.431v54.272zm26.273 29.358L282.103 115.08h32.227L212.084 387.584h-31.99zm168.749-29.358v-54.272l107.164-52.999-107.164-52.59v-53.927l153.821 83.522v46.183l-153.821 84.083z"/></svg><svg viewBox="0 0 24 24" id="in-cart" xmlns="http://www.w3.org/2000/svg"><path d="M5 4h14l-7 4-7-4Zm5-4h4v4h-4zm12 24H2L0 10h24l-2 14ZM6 22h2L7 12H5l1 10Zm5 0h2V12h-2v10Zm6-10-1 10h2l1-10h-2Z"/></svg><svg viewBox="0 0 133 21" id="logo" xmlns="http://www.w3.org/2000/svg"><path d="M10.447 20.894c-1.43 0-2.785-.273-4.065-.819a10.896 10.896 0 0 1-3.332-2.23 10.896 10.896 0 0 1-2.23-3.332A10.256 10.256 0 0 1 0 10.447c0-1.45.273-2.805.82-4.066a10.547 10.547 0 0 1 2.23-3.303A10.65 10.65 0 0 1 6.382.818 10.256 10.256 0 0 1 10.448 0c1.694 0 3.256.367 4.686 1.101a10.564 10.564 0 0 1 3.586 2.965L15.53 6.72a6.185 6.185 0 0 0-2.23-1.638c-.848-.395-1.78-.593-2.796-.593-.81 0-1.562.151-2.259.452A5.286 5.286 0 0 0 6.41 6.184a5.7 5.7 0 0 0-1.243 1.891 6.188 6.188 0 0 0-.451 2.372c0 .885.16 1.694.48 2.428a6.225 6.225 0 0 0 1.327 1.892 6.406 6.406 0 0 0 1.892 1.186 6.4 6.4 0 0 0 2.23.395 6.5 6.5 0 0 0 1.948-.282 6.066 6.066 0 0 0 1.638-.819 4.66 4.66 0 0 0 1.158-1.27c.3-.49.498-1.026.593-1.61h-5.534v-3.84h10.249c.075.32.122.64.141.96.038.32.056.64.056.96 0 1.43-.272 2.786-.818 4.066a10.65 10.65 0 0 1-2.26 3.332 10.548 10.548 0 0 1-3.303 2.23c-1.26.546-2.616.82-4.066.82ZM23 20.33V.565h4.716v19.764H23Zm14.292 0L29.415.565h4.856l5.45 13.524L45.14.565h4.857L42.12 20.329h-4.829Zm14.412 0V.565h4.716v19.764h-4.716Zm19.649-6.578h-6.551v6.578h-4.715V.565h11.266c.96 0 1.825.188 2.597.564a5.9 5.9 0 0 1 1.977 1.469c.546.602.97 1.298 1.27 2.09a6.84 6.84 0 0 1 .452 2.456c0 .847-.15 1.675-.452 2.484a6.901 6.901 0 0 1-1.27 2.118 6.453 6.453 0 0 1-1.977 1.468c-.772.358-1.637.537-2.597.537Zm-.847-4.066c.47 0 .865-.085 1.185-.254.32-.17.584-.377.791-.622.207-.263.348-.545.424-.847.094-.3.14-.574.14-.818a2.51 2.51 0 0 0-.14-.791 2.245 2.245 0 0 0-.424-.847 2.443 2.443 0 0 0-.79-.65c-.32-.169-.716-.254-1.186-.254h-5.704v5.083h5.703Zm9.323 10.644V.565h4.716v15.53h9.967v4.234H79.829Zm31.544 0-1.298-3.19h-8.273l-1.299 3.19h-4.857L103.524.565h4.828l7.878 19.764h-4.857Zm-8.047-7.058h5.224l-2.626-6.466-2.598 6.466Zm16.771 7.058v-7.34L112.163.564h4.913l5.365 8.357 5.364-8.357h4.913l-7.934 12.423v7.341h-4.687Z"/></svg><svg viewBox="0 0 48 48" id="pic" xmlns="http://www.w3.org/2000/svg"><path d="M0 0h48v48H0V0Z"/><path d="m38 38-15-3.75V14.018L38 10v28ZM19 33.25 10 31V17.5l9-2.411V33.25Z"/></svg><svg viewBox="0 0 25 34" id="profile" xmlns="http://www.w3.org/2000/svg"><path d="M3.036 18.214 0 34h24.286L21.25 18.214H3.036Z"/><circle cx="12.143" cy="7.893" r="7.893"/></svg><svg viewBox="0 0 48 48" id="question" xmlns="http://www.w3.org/2000/svg"><path d="M0 0h48v48H0V0Z"/><path d="M23 7c5.523 0 10 4.477 10 10 0 4.838-3.436 8.872-8 9.799V31h-6V21h4a4 4 0 0 0 0-8h-4V7h4ZM19 35h6v6h-6z"/></svg><svg viewBox="0 0 22 27" id="refresh" xmlns="http://www.w3.org/2000/svg"><path d="m9.4 1.414 2.4 2.395-.071.07m.071 16.735-2.4 2.293.036.037M11.729 3.88 9.4 6.214m2.329-2.334A9.6 9.6 0 0 0 4.6 20.909m12-14.99a9.6 9.6 0 0 1-7.164 17.025m2.364 2.47-2.364-2.47"/></svg><svg viewBox="0 0 32 32" id="show-password" xmlns="http://www.w3.org/2000/svg"><path d="M16 8c6.473 0 12.244 3.123 16 8-3.756 4.877-9.527 8-16 8C9.73 24 4.118 21.069.358 16.452L0 16c3.757-4.877 9.527-8 16-8Zm0 4a4 4 0 1 0 0 8 4 4 0 0 0 0-8Z"/><path d="M16 8c6.473 0 12.244 3.123 16 8-3.756 4.877-9.527 8-16 8C9.73 24 4.118 21.069.358 16.452L0 16c3.757-4.877 9.527-8 16-8Zm0 4a4 4 0 1 0 0 8 4 4 0 0 0 0-8Z" fill-opacity=".25"/></svg><svg viewBox="0 0 48 48" id="squares" xmlns="http://www.w3.org/2000/svg"><path d="M0 0h48v48H0V0Z"/><path d="M10 10h12v12H10zM26 10h12v12H26zM26 26h12v12H26zm-16 0h12v12H10z"/></svg><svg viewBox="0 0 28 24" id="tg" xmlns="http://www.w3.org/2000/svg"><path fill-rule="evenodd" clip-rule="evenodd" d="M1.923 9.98c7.509-3.272 12.516-5.43 15.021-6.47C24.097.533 25.584.016 26.552 0c.213-.004.69.05.998.3.261.211.333.497.367.697.034.2.077.657.043 1.014-.387 4.073-2.065 13.957-2.918 18.519-.361 1.93-1.072 2.577-1.76 2.64-1.496.138-2.632-.988-4.08-1.938-2.268-1.486-3.548-2.411-5.749-3.861-2.543-1.676-.894-2.597.555-4.102.38-.394 6.97-6.389 7.097-6.933.016-.068.03-.321-.12-.455s-.373-.088-.533-.052c-.227.052-3.849 2.446-10.865 7.182-1.028.705-1.959 1.05-2.793 1.031-.92-.02-2.689-.52-4.004-.947-1.613-.525-2.895-.802-2.783-1.692.058-.464.697-.939 1.916-1.423Z"/></svg><svg viewBox="0 0 48 48" id="time" xmlns="http://www.w3.org/2000/svg"><path d="M0 0h48v48H0V0Z"/><circle cx="24" cy="24" r="14"/><path d="m26 24.154 3.737 2.159-2 3.463L22 26.464l.268-.464H22V14h4v10.154Z"/></svg><svg viewBox="0 0 10 13" id="triangle" xmlns="http://www.w3.org/2000/svg"><path d="M9.364 12.729 0 6.364 9.364 0v12.729Z"/></svg><svg viewBox="0 0 30 21" id="youtube" xmlns="http://www.w3.org/2000/svg"><path d="M14.707 0c.058 0 9.214.002 11.509.63a3.685 3.685 0 0 1 2.592 2.593c.628 2.296.605 7.075.605 7.098 0 0 0 4.774-.605 7.075a3.685 3.685 0 0 1-2.592 2.592c-2.295.604-11.451.607-11.509.607 0 0-9.183 0-11.509-.63a3.686 3.686 0 0 1-2.593-2.593C0 15.095 0 10.297 0 10.297c0-.042.002-4.783.605-7.074A3.762 3.762 0 0 1 3.198.605C5.5 0 14.707 0 14.707 0Zm-2.932 14.706 7.656-4.41-7.656-4.408v8.818Z"/></svg></svg>